<?xml version="1.0" encoding="UTF-8"?>
<svg version="1.1" xmlns="http://www.w3.org/2000/svg" width="655" height="655">
<path d="M0 0 C0.91267136 -0.00570007 1.82534271 -0.01140015 2.76567078 -0.01727295 C4.68922798 -0.0266565 6.61280077 -0.03323022 8.53637695 -0.03710938 C11.40411422 -0.04672378 14.27110481 -0.07777374 17.13867188 -0.109375 C30.06059854 -0.18351356 42.40867893 1.02932007 55.13671875 3.203125 C56.94184937 3.49340576 56.94184937 3.49340576 58.78344727 3.78955078 C98.96037489 10.42587648 140.51844566 24.92601939 174.39941406 48.02490234 C176.27181923 49.29474879 178.16625392 50.5260083 180.06640625 51.75390625 C187.42341908 56.53433613 194.39061503 61.5813719 201.13671875 67.203125 C202.02875 67.92242187 202.92078125 68.64171875 203.83984375 69.3828125 C220.96123402 83.20427001 237.84322416 98.59292368 251.13671875 116.203125 C252.13248142 117.47263686 253.13003038 118.7407487 254.12890625 120.0078125 C267.76274546 137.40951213 278.9634693 155.58077585 289.13671875 175.203125 C289.52311523 175.92725586 289.90951172 176.65138672 290.30761719 177.39746094 C308.33540391 211.26938698 318.45629676 254.10731424 319.13671875 292.203125 C319.15718262 293.21358887 319.17764648 294.22405273 319.19873047 295.26513672 C319.70645928 324.77634912 318.31469134 354.50351856 309.80419922 382.95800781 C309.3012286 384.64978463 308.81008029 386.34508292 308.32470703 388.04199219 C304.03338958 403.03027129 299.08948619 417.24225571 292.13671875 431.203125 C291.70987793 432.06776367 291.28303711 432.93240234 290.84326172 433.82324219 C278.3039681 459.03020245 262.34863035 484.59837414 242.0390625 504.3046875 C240.11896186 506.22084543 238.34282038 508.20947789 236.57421875 510.265625 C231.24245553 516.42784344 225.68467212 521.66509648 219.1875 526.58984375 C216.99267624 528.25083685 216.99267624 528.25083685 214.69921875 530.640625 C188.62789418 556.71194957 151.42998451 574.3664989 117.13671875 586.203125 C115.99847656 586.6053125 114.86023438 587.0075 113.6875 587.421875 C109.30249409 588.76490897 105.64296907 588.81931831 101.38671875 587.078125 C98.49225098 584.66606853 97.37023036 582.76660297 96.13671875 579.203125 C96.23143271 573.8044294 97.48563288 571.09915319 101.13671875 567.203125 C103.69189453 565.84448242 103.69189453 565.84448242 106.58203125 564.80859375 C107.6496167 564.41502686 108.71720215 564.02145996 109.81713867 563.6159668 C110.9538501 563.211604 112.09056152 562.80724121 113.26171875 562.390625 C115.63658456 561.50834564 118.01028241 560.62291619 120.3828125 559.734375 C121.54280762 559.30253906 122.70280273 558.87070312 123.89794922 558.42578125 C144.72993956 550.56157142 164.45149574 539.73485263 182.13671875 526.203125 C183.58412992 525.11521256 185.03207826 524.02801454 186.48046875 522.94140625 C193.02457486 518.0021409 199.43092562 513.06013673 205.47705078 507.51245117 C207.13671875 506.203125 207.13671875 506.203125 209.13671875 506.203125 C209.39839844 505.60371094 209.66007812 505.00429688 209.9296875 504.38671875 C211.20892063 502.07250736 212.39922317 500.90653055 214.44921875 499.265625 C225.43417518 490.40360397 234.36391312 479.01046819 242.88769531 467.83740234 C243.98950624 466.39574434 245.10504989 464.96460409 246.22265625 463.53515625 C252.18754033 455.68342108 257.00061577 447.17292377 261.80371094 438.58154297 C263.01709992 436.41655478 264.25117047 434.26475529 265.48828125 432.11328125 C280.0628877 406.25850347 289.89941207 375.69723617 293.13671875 346.203125 C293.23678223 345.36136719 293.3368457 344.51960938 293.43994141 343.65234375 C301.93934815 270.51729108 282.26234526 195.24903747 236.5 137.1875 C235.72011719 136.20265625 234.94023438 135.2178125 234.13671875 134.203125 C233.47027344 133.34203125 232.80382812 132.4809375 232.1171875 131.59375 C187.57780507 74.62688205 115.68835443 35.43909009 44.13671875 26.203125 C4.85115965 21.87444942 -31.25084715 26.22743792 -68.86328125 38.203125 C-69.76723633 38.48462402 -70.67119141 38.76612305 -71.60253906 39.05615234 C-88.44730088 44.38509945 -103.55638276 52.54079519 -118.86328125 61.203125 C-119.66975098 61.65365234 -120.4762207 62.10417969 -121.30712891 62.56835938 C-131.47650028 68.27169164 -140.67787864 75.05064166 -149.86328125 82.203125 C-150.77851563 82.90308594 -151.69375 83.60304688 -152.63671875 84.32421875 C-159.75719637 89.86620862 -166.34538897 95.97539446 -172.86328125 102.203125 C-173.47929199 102.7904541 -174.09530273 103.3777832 -174.72998047 103.98291016 C-185.8604545 114.66395539 -195.45131726 125.93656293 -204.14257812 138.69873047 C-205.23865181 140.2940091 -206.35070389 141.87850944 -207.48339844 143.44799805 C-211.94354724 149.64402014 -215.75424844 156.04289546 -219.36328125 162.765625 C-219.92716553 163.81049072 -220.4910498 164.85535645 -221.07202148 165.93188477 C-225.29244364 173.86958807 -228.91719277 181.90077014 -232.10009766 190.30102539 C-232.93378878 192.37885251 -233.87733169 194.3872995 -234.828125 196.4140625 C-237.28934792 201.90466254 -238.8320446 207.58311402 -240.36328125 213.390625 C-240.66516357 214.52757812 -240.9670459 215.66453125 -241.27807617 216.8359375 C-244.05594813 227.53876121 -246.20309892 238.27449322 -247.86328125 249.203125 C-247.9804248 249.93805176 -248.09756836 250.67297852 -248.21826172 251.43017578 C-255.19794514 296.47143147 -246.52968301 345.37471225 -226.86328125 386.203125 C-226.53070313 386.90920898 -226.198125 387.61529297 -225.85546875 388.34277344 C-216.86132498 407.43704816 -205.37916058 425.18366002 -192.04296875 441.53125 C-190.86328125 443.203125 -190.86328125 443.203125 -190.86328125 445.203125 C-189.87328125 445.533125 -188.88328125 445.863125 -187.86328125 446.203125 C-186.57539882 447.67456768 -185.35757798 449.2076965 -184.17578125 450.765625 C-174.74763682 462.56234078 -163.72790675 472.90109719 -151.86328125 482.203125 C-150.75325701 483.17564624 -149.64853642 484.15427568 -148.55078125 485.140625 C-142.99779977 489.92858765 -136.8747758 494.0194706 -130.86328125 498.203125 C-130.25387695 498.63206055 -129.64447266 499.06099609 -129.01660156 499.50292969 C-93.33819223 524.53674167 -48.79246773 539.68362985 -5.5324707 543.12817383 C-4.36159912 543.22767334 -3.19072754 543.32717285 -1.984375 543.4296875 C-0.42867798 543.54691162 -0.42867798 543.54691162 1.15844727 543.66650391 C5.38569737 544.42816435 8.8460156 545.95692886 11.94921875 548.953125 C13.61979136 552.11842048 14.01343176 554.62780232 14.13671875 558.203125 C12.91801419 561.72382707 11.91947102 563.61951819 8.92578125 565.8515625 C-11.16225622 575.58610166 -52.7946054 560.22041468 -72.39794922 553.47607422 C-91.74533059 546.36903981 -111.42411219 538.26146829 -128.86328125 527.203125 C-129.78077148 526.62481934 -130.69826172 526.04651367 -131.64355469 525.45068359 C-144.45927179 517.30068203 -156.56604588 508.64248177 -168.06933594 498.72802734 C-169.77987479 497.27402276 -171.51681896 495.86550261 -173.27734375 494.47265625 C-174.27507812 493.68246094 -175.2728125 492.89226562 -176.30078125 492.078125 C-177.14511719 491.41554688 -177.98945313 490.75296875 -178.859375 490.0703125 C-180.87352648 488.19357876 -181.73236315 486.67203072 -182.86328125 484.203125 C-183.48203125 483.89375 -184.10078125 483.584375 -184.73828125 483.265625 C-187.61711746 481.8262069 -188.84893452 479.72105841 -190.86328125 477.203125 C-192.03628033 476.1861543 -193.22576341 475.18806836 -194.42578125 474.203125 C-200.28439422 469.18145674 -205.03283899 463.18546832 -209.86328125 457.203125 C-210.28899414 456.67944336 -210.71470703 456.15576172 -211.15332031 455.61621094 C-218.43676873 446.60159104 -224.77971845 437.0576853 -230.86328125 427.203125 C-231.31848145 426.46852051 -231.77368164 425.73391602 -232.24267578 424.97705078 C-239.73039524 412.78124485 -245.87068115 400.12855605 -251.61279297 387.02929688 C-252.73955618 384.48275042 -253.90402489 381.95877075 -255.0859375 379.4375 C-263.8660305 360.29299869 -268.40107746 339.06225426 -270.86328125 318.203125 C-271.01555176 316.95716553 -271.01555176 316.95716553 -271.17089844 315.68603516 C-276.59598546 269.77816153 -271.36404866 221.74998268 -252.86328125 179.203125 C-252.42991455 178.19306396 -252.42991455 178.19306396 -251.98779297 177.16259766 C-237.98540263 144.57270629 -218.71767995 115.97577738 -194.48828125 90.078125 C-193.84665039 89.39169922 -193.20501953 88.70527344 -192.54394531 87.99804688 C-188.21272347 83.44098435 -183.63744363 79.28848393 -178.86328125 75.203125 C-177.7676359 74.23129932 -176.673783 73.25744773 -175.58203125 72.28125 C-167.67717977 65.29944195 -159.40165155 59.22230609 -150.62451172 53.38574219 C-148.27512759 51.8081962 -145.97616764 50.16355172 -143.67578125 48.515625 C-132.6987757 40.8462602 -121.10944103 34.45481086 -109.19189453 28.390625 C-107.73589729 27.64812441 -106.28315591 26.89916335 -104.83544922 26.140625 C-83.7525681 15.12308467 -60.15974086 8.49717582 -36.86328125 4.203125 C-36.04988281 4.04763184 -35.23648438 3.89213867 -34.3984375 3.73193359 C-22.9280346 1.54003189 -11.68484153 0.05877133 0 0 Z " fill="#131313" transform="translate(310.86328125,28.796875)"/>
<path d="M0 0 C0.81509033 0.00281982 1.63018066 0.00563965 2.4699707 0.00854492 C14.45854197 0.07077137 26.00628759 0.38886449 37.6875 3.3125 C39.3257373 3.7156543 39.3257373 3.7156543 40.99707031 4.12695312 C55.65360359 7.80377186 70.00309365 11.84554453 83.6875 18.3125 C84.85410156 18.85390625 86.02070313 19.3953125 87.22265625 19.953125 C139.42590106 45.14251483 176.04169599 86.9289369 195.68774414 141.27148438 C202.59700359 161.34169713 205.663619 182.17236882 206.6875 203.3125 C206.72214355 204.0255127 206.75678711 204.73852539 206.79248047 205.47314453 C208.61908116 250.48013184 192.92056443 296.29382487 165.12133789 331.46777344 C163.61533799 333.40534117 162.17510507 335.38356431 160.73046875 337.3671875 C157.86975346 341.19537501 154.68928152 344.50542001 151.25 347.8125 C147.76203199 351.21709612 144.37035087 354.57055697 141.3125 358.375 C125.20730104 377.21728942 100.19983274 389.61683479 77.57275391 398.54394531 C75.96952929 399.19752613 74.39317378 399.91640118 72.82421875 400.6484375 C48.81426439 411.81751257 19.46847543 414.2511735 -6.6875 413 C-7.45344482 412.96543701 -8.21938965 412.93087402 -9.00854492 412.89526367 C-14.92301942 412.53663186 -20.25604235 411.71264138 -25.25 408.3125 C-27.81525024 404.58122693 -28.03001466 402.14102503 -27.8046875 397.6875 C-27.04548539 394.02404854 -25.27664534 392.46824207 -22.3125 390.3125 C-18.73899181 388.00346394 -16.17363422 388.25425077 -12 388.6875 C32.82442873 392.5151004 79.84263659 379.75265662 114.89453125 350.94140625 C118.03612069 348.27201655 121.09731571 345.52165997 124.13037109 342.72998047 C126.24638072 340.80374154 128.4413608 338.97383933 130.625 337.125 C135.25787638 332.97615548 138.92570184 328.24369609 142.6875 323.3125 C143.45835937 322.36890625 144.22921875 321.4253125 145.0234375 320.453125 C175.38201076 282.72038726 187.08810819 235.55857658 182.46875 187.90625 C180.41891417 169.45772757 176.15692369 152.3029661 168.6875 135.3125 C168.28837402 134.40419434 167.88924805 133.49588867 167.47802734 132.56005859 C162.70626524 121.85674407 157.67137534 111.75722905 150.6875 102.3125 C149.99140625 101.33410156 149.2953125 100.35570312 148.578125 99.34765625 C143.11634208 91.82317871 137.08470184 85.03398396 130.6875 78.3125 C130.10613281 77.67828125 129.52476562 77.0440625 128.92578125 76.390625 C99.31078093 45.05989419 52.40497216 24.92603215 9.6105957 23.1875 C-20.86779721 22.46295608 -49.81251936 26.86999173 -77.46777344 40.41064453 C-79.44965279 41.37955167 -81.44650066 42.31266442 -83.4453125 43.24609375 C-91.74442766 47.18609722 -99.02859472 51.67299152 -106.3125 57.3125 C-108.16440484 58.62818946 -110.01859677 59.94066532 -111.875 61.25 C-116.51515231 64.62105082 -120.77000169 68.27325077 -124.9765625 72.16796875 C-127.06003625 74.08072308 -129.19739367 75.88430424 -131.375 77.6875 C-136.33637568 82.02248957 -140.26580526 87.13836792 -144.3125 92.3125 C-145.14136719 93.33730469 -145.97023437 94.36210937 -146.82421875 95.41796875 C-152.84078619 102.92715206 -157.82369576 110.79948276 -162.3125 119.3125 C-162.65023437 119.94559082 -162.98796875 120.57868164 -163.3359375 121.23095703 C-175.50894643 144.19835875 -182.53526943 168.25426676 -182.4375 194.375 C-182.44136719 195.41205078 -182.44523437 196.44910156 -182.44921875 197.51757812 C-182.44198573 203.22081428 -182.11344299 208.66893248 -181.3125 214.3125 C-180.54622598 224.84876782 -180.54622598 224.84876782 -184.3125 229.3125 C-187.46520727 231.41430485 -189.4148446 231.86417923 -193.1796875 231.74609375 C-197.27141818 230.91425839 -199.8578549 228.60581551 -202.3125 225.3125 C-203.5729809 222.35387123 -203.97562505 219.49794992 -204.3125 216.3125 C-204.47492188 215.05373047 -204.47492188 215.05373047 -204.640625 213.76953125 C-209.27908684 170.49756487 -196.8562427 125.4515927 -171.3125 90.3125 C-170.62849121 89.34884521 -170.62849121 89.34884521 -169.93066406 88.36572266 C-139.8436074 46.02288828 -94.95423803 16.87704489 -44.6875 4.5625 C-43.88997314 4.36382324 -43.09244629 4.16514648 -42.27075195 3.96044922 C-28.27180917 0.68425024 -14.31202439 -0.07191972 0 0 Z " fill="#141414" transform="translate(317.3125,114.6875)"/>
<path d="M0 0 C15.49647046 12.17293804 26.2479989 29.25236705 29.6484375 48.75 C31.22396733 72.1113044 27.96917065 92.91539751 12.08203125 111.16015625 C0.34487084 123.65090641 -11.63554989 131.53527887 -28.3515625 135.75 C-29.25684692 136.01043091 -29.25684692 136.01043091 -30.18041992 136.27612305 C-44.71173446 139.44775034 -61.75291038 137.58796382 -75.3515625 131.75 C-76.31860107 131.33983643 -76.31860107 131.33983643 -77.30517578 130.92138672 C-97.27421471 122.11547412 -109.60010165 106.37197385 -117.6875 86.49609375 C-124.26767995 68.87831044 -123.024909 48.66748076 -115.5859375 31.5546875 C-107.23178211 13.45016247 -93.12896126 -1.79595658 -74.24707031 -9.05957031 C-48.84802915 -17.96810389 -22.40523246 -15.70396958 0 0 Z " fill="#121212" transform="translate(367.3515625,262.25)"/>
<path d="M0 0 C0 0.66 0 1.32 0 2 C-0.68400879 2.1858667 -1.36801758 2.3717334 -2.07275391 2.56323242 C-25.20037463 8.85016092 -25.20037463 8.85016092 -47.40234375 17.7890625 C-49.36677849 18.70481403 -51.35274636 19.57456205 -53.34765625 20.421875 C-66.59902856 26.14760165 -79.40966021 33.07654995 -91.3046875 41.265625 C-94 43 -94 43 -96 43 C-96 43.66 -96 44.32 -96 45 C-97.45288086 46.11328125 -97.45288086 46.11328125 -99.46484375 47.3125 C-100.18220703 47.74820313 -100.89957031 48.18390625 -101.63867188 48.6328125 C-102.39728516 49.08398438 -103.15589844 49.53515625 -103.9375 50 C-105.42850506 50.89129252 -106.91692719 51.78692458 -108.40234375 52.6875 C-109.06741943 53.08324219 -109.73249512 53.47898438 -110.41772461 53.88671875 C-112.16059143 54.92604638 -112.16059143 54.92604638 -113 57 C-113.71800781 57.42925781 -114.43601562 57.85851562 -115.17578125 58.30078125 C-119.0752801 60.64695276 -122.38092238 63.61684787 -125.80273438 66.59179688 C-129.79319311 70 -129.79319311 70 -132 70 C-132.38285156 70.88945312 -132.38285156 70.88945312 -132.7734375 71.796875 C-134.12623741 74.2267449 -135.48341276 75.49236266 -137.625 77.25 C-144.83010789 83.37758725 -150.97787605 90.0192614 -156.8984375 97.39453125 C-158.64157129 99.55562835 -160.42050184 101.66249569 -162.25 103.75 C-164.25479316 106.04994326 -166.02305379 108.42238358 -167.75 110.9375 C-168.4925 111.948125 -169.235 112.95875 -170 114 C-170.66 114 -171.32 114 -172 114 C-172.22429687 114.66128906 -172.44859375 115.32257813 -172.6796875 116.00390625 C-174.41779924 119.94808289 -176.73813234 123.35921581 -179.125 126.9375 C-191.38079696 145.61615322 -200.60489689 164.89399383 -208.5 185.75 C-208.87769531 186.73226562 -209.25539063 187.71453125 -209.64453125 188.7265625 C-214.28487375 201.00513201 -217.47859636 213.22040101 -219.38305664 226.17871094 C-219.68953819 228.26386689 -220.00867549 230.34678399 -220.33007812 232.4296875 C-221.92278926 242.90291154 -223.1538523 253.1849828 -223.16796875 263.78515625 C-223.17129715 264.68511826 -223.17462555 265.58508026 -223.17805481 266.51231384 C-223.1830818 268.40558365 -223.18546446 270.29886219 -223.18530273 272.19213867 C-223.18747607 275.03124288 -223.20564142 277.86994928 -223.22460938 280.70898438 C-223.2601518 291.96408681 -222.64958376 302.86690465 -221 314 C-220.82734619 315.17183838 -220.65469238 316.34367676 -220.47680664 317.55102539 C-219.99088399 320.70593092 -219.47215999 323.85302788 -218.9375 327 C-218.76412109 328.05960937 -218.59074219 329.11921875 -218.41210938 330.2109375 C-218.24388672 331.21382813 -218.07566406 332.21671875 -217.90234375 333.25 C-217.75273193 334.14203125 -217.60312012 335.0340625 -217.44897461 335.953125 C-217.19646155 337.98326743 -217.19646155 337.98326743 -216 339 C-215.62793135 340.93414198 -215.27849995 342.87263936 -214.9375 344.8125 C-212.87131758 354.69206158 -208.9702527 363.75307398 -205 373 C-204.63616211 373.84868652 -204.27232422 374.69737305 -203.89746094 375.57177734 C-199.41844927 386.02311593 -199.41844927 386.02311593 -194 396 C-193.50345969 397.25639744 -193.04164448 398.52739526 -192.625 399.8125 C-190.99888474 404.30527206 -188.6220796 408.02821722 -186 412 C-184.81052932 413.87375045 -183.62312701 415.74881508 -182.4375 417.625 C-180.52358692 420.6379505 -178.58855956 423.62399518 -176.5625 426.5625 C-175 429 -175 429 -175 431 C-174.34 431 -173.68 431 -173 431 C-172.505 431.94875 -172.01 432.8975 -171.5 433.875 C-166.88005634 441.93153333 -160.39621655 448.78472041 -154.16796875 455.61328125 C-152.16306865 457.82047758 -150.2005476 460.05731156 -148.25 462.3125 C-146.26652523 464.60112473 -144.24610506 466.77702651 -142.0625 468.875 C-140 471 -140 471 -140 473 C-139.1646875 473.3403125 -139.1646875 473.3403125 -138.3125 473.6875 C-135.35244332 475.36753217 -133.39042684 477.57507927 -131 480 C-129.13753877 481.76333864 -127.2624016 483.51338255 -125.375 485.25 C-123.96347656 486.55710937 -123.96347656 486.55710937 -122.5234375 487.890625 C-120.11565423 490.16467917 -120.11565423 490.16467917 -117 491 C-115.3260965 492.65939827 -113.66075026 494.32743786 -112 496 C-109.75220437 497.84043039 -107.41652457 499.54842466 -105.0625 501.25 C-104.40789795 501.72526123 -103.7532959 502.20052246 -103.07885742 502.69018555 C-92.83788373 510.05930623 -82.45276472 516.65118131 -71 522 C-71 522.66 -71 523.32 -71 524 C-70.05640625 524.35578125 -70.05640625 524.35578125 -69.09375 524.71875 C-66.58723307 525.75680246 -64.16316698 526.85944186 -61.71875 528.03125 C-29.52230762 543.35153689 8.64533042 556.96883513 44.8125 557.1875 C46.43091797 557.20876953 46.43091797 557.20876953 48.08203125 557.23046875 C50.97361097 557.00208427 52.60221845 556.5929318 55 555 C56.56471233 551.87057535 56.69701958 548.38917777 56 545 C53.98171785 542.54805173 52.65711873 541.18427034 49.56835938 540.31811523 C48.21967773 540.1896521 48.21967773 540.1896521 46.84375 540.05859375 C45.8319165 539.95200439 44.82008301 539.84541504 43.77758789 539.7355957 C42.69598389 539.63722412 41.61437988 539.53885254 40.5 539.4375 C38.21726551 539.19179297 35.93471427 538.94437782 33.65234375 538.6953125 C32.52038574 538.57704102 31.38842773 538.45876953 30.22216797 538.33691406 C9.59388897 536.17999445 -9.97763022 531.01366483 -29.19140625 523.10546875 C-31.47919541 522.20498984 -33.73155658 521.45191942 -36.07421875 520.71875 C-42.03215647 518.75423411 -47.61118257 516.04258302 -53.25 513.3125 C-54.35738525 512.77794189 -55.46477051 512.24338379 -56.60571289 511.69262695 C-64.39300635 507.88745267 -71.82308215 503.8773093 -79 499 C-79.81339844 498.4534375 -80.62679687 497.906875 -81.46484375 497.34375 C-84.00442853 495.59855722 -86.50467603 493.80794635 -89 492 C-89.56477051 491.59378418 -90.12954102 491.18756836 -90.71142578 490.76904297 C-99.04102021 484.7723489 -107.14463527 478.61095052 -115 472 C-115.67804688 471.44570313 -116.35609375 470.89140625 -117.0546875 470.3203125 C-120.84501837 467.18068221 -123.84777167 463.79883927 -127 460 C-128.46453573 458.79016613 -129.92974547 457.58098075 -131.41015625 456.390625 C-138.09473872 450.54366834 -143.43254916 442.87292208 -149 436 C-150.05960938 434.70835937 -150.05960938 434.70835937 -151.140625 433.390625 C-163 418.8153626 -163 418.8153626 -163 415 C-163.66 415 -164.32 415 -165 415 C-165.81791016 413.5459375 -165.81791016 413.5459375 -166.65234375 412.0625 C-167.19181641 411.1039209 -167.19181641 411.1039209 -167.7421875 410.12597656 C-168.55188989 408.68584412 -169.36044952 407.24506867 -170.16796875 405.80371094 C-172.1815772 402.21308661 -174.20679325 398.6317182 -176.28515625 395.078125 C-196.4335461 360.42980552 -206.96192532 320.06024558 -208 280 C-208.04253906 278.59041016 -208.04253906 278.59041016 -208.0859375 277.15234375 C-208.1260479 274.42884757 -208.08204914 271.72253963 -208 269 C-207.95746094 267.34097656 -207.95746094 267.34097656 -207.9140625 265.6484375 C-205.95906257 220.68343906 -191.40906911 174.95882967 -166.25 137.625 C-165.63874268 136.71451904 -165.02748535 135.80403809 -164.39770508 134.8659668 C-149.46431295 112.79570906 -131.22627805 92.22450413 -110 76 C-108.91583142 75.1289557 -107.83393768 74.25507506 -106.75390625 73.37890625 C-82.99890775 54.19914327 -55.92303539 38.81954905 -27 29 C-25.33257824 28.35611868 -23.66588593 27.71034453 -22 27.0625 C10.20192889 15.53514285 44.7362182 12.21568621 78.68847656 15.11694336 C80.99729705 15.31227133 83.3069991 15.49159412 85.6171875 15.66992188 C99.95047707 16.83020627 113.60569131 19.63910667 127.4375 23.625 C128.63544189 23.96982422 129.83338379 24.31464844 131.06762695 24.66992188 C160.47416267 33.32084438 189.38036879 45.83079163 214.63671875 63.375 C217.66103236 65.45452804 220.77977822 67.24351539 224 69 C224 69.66 224 70.32 224 71 C224.70125 71.23976563 225.4025 71.47953125 226.125 71.7265625 C235.97438708 76.08919862 244.37798528 84.99261952 252.125 92.3359375 C254.90756509 94.98115718 254.90756509 94.98115718 257.6796875 97.1328125 C259.76997797 98.81489809 261.40871992 100.45124682 263.125 102.5 C265.65179353 105.46528264 268.24407395 108.34570812 270.90942383 111.18725586 C276.25137495 116.89915591 281.10811354 122.84060564 285.80859375 129.08984375 C287.15189604 130.87373003 288.52471845 132.63640551 289.9453125 134.359375 C292.67543358 137.86804772 295.04395897 141.56909401 297.4375 145.3125 C297.90220703 146.03373047 298.36691406 146.75496094 298.84570312 147.49804688 C300.23682648 149.66136981 301.61914117 151.83011428 303 154 C303.43731445 154.67973877 303.87462891 155.35947754 304.32519531 156.05981445 C307.11669993 160.44349877 309.59038925 164.89607355 311.875 169.5625 C312.21450684 170.25158447 312.55401367 170.94066895 312.90380859 171.65063477 C313.60195298 173.07340041 314.29744142 174.49747246 314.99023438 175.92285156 C315.63895204 177.2573027 316.29101708 178.59013463 316.94726562 179.92089844 C321.76431191 189.70455668 325.57449649 199.65283704 329 210 C329.2460498 210.72638672 329.49209961 211.45277344 329.74560547 212.20117188 C333.00210959 221.83720358 335.76203006 231.55933296 338.1875 241.4375 C338.42533203 242.38818359 338.66316406 243.33886719 338.90820312 244.31835938 C342.9942326 261.47510497 344.52381821 278.27295597 344.375 295.875 C344.36851944 297.33718964 344.36851944 297.33718964 344.36190796 298.82891846 C344.12309917 345.03724174 334.83652595 388.05004262 313 429 C312.65888184 429.64888184 312.31776367 430.29776367 311.96630859 430.96630859 C301.8005221 450.19465464 288.64891001 466.7023288 274.05078125 482.7265625 C272.13744131 484.84763649 270.28566948 487.00974725 268.4375 489.1875 C265.56421498 492.48255163 262.48217905 495.3412392 259.1484375 498.1640625 C256.81504533 500.15805217 254.56861914 502.23161341 252.3125 504.3125 C242.194332 513.41423104 231.11419161 521.11403861 219.85668945 528.72045898 C217.94649226 530.03687496 216.07770765 531.40160814 214.20703125 532.7734375 C211.24238152 534.8317205 209.53512164 535.67862531 206 536 C206 536.66 206 537.32 206 538 C194.87241511 543.7124754 183.8145324 549.32748431 172.125 553.80078125 C168.72994874 555.10363217 165.4317315 556.55708373 162.125 558.06640625 C158.88483066 559.48993653 155.5747342 560.72960858 152.26171875 561.97265625 C149.77940179 563.10020264 147.94587507 564.076187 146 566 C145.51738333 568.50880616 145.51738333 568.50880616 145.75 571.1875 C145.78609375 572.08855469 145.8221875 572.98960937 145.859375 573.91796875 C145.90578125 574.60503906 145.9521875 575.29210937 146 576 C161.13682372 581.67630889 181.097556 568.98486086 194.6875 562.8125 C224.49273041 549.17406949 252.60447464 529.4179837 275.26977539 505.65673828 C276.47859036 504.40351099 277.735295 503.19680138 279 502 C279.66 502 280.32 502 281 502 C281.33 501.01 281.66 500.02 282 499 C283.64488294 497.31183067 285.31337542 495.64646685 287 494 C287.556875 493.236875 288.11375 492.47375 288.6875 491.6875 C289.3371875 490.8521875 289.3371875 490.8521875 290 490 C290.66 490 291.32 490 292 490 C292.24492188 489.43796875 292.48984375 488.8759375 292.7421875 488.296875 C294.23270318 485.57506377 296.05461251 483.56602669 298.125 481.25 C310.3059704 467.08533081 320.38617975 450.55068535 329 434 C329.33402832 433.36223633 329.66805664 432.72447266 330.01220703 432.06738281 C332.43053799 427.42003176 334.74111241 422.72666395 337 418 C337.33918457 417.29649414 337.67836914 416.59298828 338.02783203 415.86816406 C343.59737342 404.21585603 347.67035592 392.46826398 351 380 C351.25523437 379.06865234 351.51046875 378.13730469 351.7734375 377.17773438 C362.58892158 337.26217309 365.32439818 293.14950338 358.38037109 252.2578125 C358.01903928 250.11301363 357.71141356 247.9685297 357.42578125 245.8125 C356.71427325 240.13015204 356.71427325 240.13015204 355.05737305 234.68652344 C353.9981957 231.99541571 353.25438546 229.36712669 352.5546875 226.5625 C342.72394931 188.04175443 325.85023736 152.84283028 302 121 C301.11634766 119.81470703 301.11634766 119.81470703 300.21484375 118.60546875 C295.45659844 112.36238093 290.34273625 106.4072618 285.23681641 100.44824219 C284.22724561 99.26609178 283.22741604 98.07562803 282.23046875 96.8828125 C273.96339593 87.12975951 264.71176524 78.02823274 254.671875 70.12109375 C252.87754784 68.69664982 251.11669259 67.22908949 249.390625 65.72265625 C241.33060645 58.69860054 232.60326586 52.93420527 223.66015625 47.1015625 C220.28494198 44.89278989 217.13146286 42.54580759 214 40 C211.3205355 38.75983331 211.3205355 38.75983331 209 38 C209 37.34 209 36.68 209 36 C207.02 35.67 205.04 35.34 203 35 C203 34.34 203 33.68 203 33 C202.44062744 32.88140625 201.88125488 32.7628125 201.30493164 32.640625 C198.73662745 31.92679911 196.51940798 30.91337683 194.12109375 29.75 C192.73954102 29.08484375 192.73954102 29.08484375 191.33007812 28.40625 C190.37552734 27.9421875 189.42097656 27.478125 188.4375 27 C186.54111681 26.08177815 184.6440123 25.16504412 182.74609375 24.25 C181.48817017 23.63898437 181.48817017 23.63898437 180.20483398 23.015625 C177.90512152 21.90743413 177.90512152 21.90743413 175 21 C175 20.34 175 19.68 175 19 C173.2984375 18.87625 173.2984375 18.87625 171.5625 18.75 C168.37102034 18.35440214 165.90255143 17.6173368 163.01953125 16.20703125 C157.22740942 13.54970089 151.21982455 11.76594736 145.125 9.9375 C144.01769531 9.59912109 142.91039062 9.26074219 141.76953125 8.91210938 C131.92140896 5.92064097 122.06818475 3.14567872 112 1 C112.33 0.34 112.66 -0.32 113 -1 C121.04041419 -0.55419486 128.41457313 1.24534192 136.125 3.5 C137.35565186 3.85892334 138.58630371 4.21784668 139.85424805 4.58764648 C167.7766172 12.89151627 196.06959526 24.32775097 220.26269531 40.82177734 C222.13510048 42.09162379 224.02953517 43.3228833 225.9296875 44.55078125 C233.28670033 49.33121113 240.25389628 54.3782469 247 60 C247.89203125 60.71929687 248.7840625 61.43859375 249.703125 62.1796875 C266.82451527 76.00114501 283.70650541 91.38979868 297 109 C297.99576267 110.26951186 298.99331163 111.5376237 299.9921875 112.8046875 C313.62602671 130.20638713 324.82675055 148.37765085 335 168 C335.38639648 168.72413086 335.77279297 169.44826172 336.17089844 170.19433594 C354.19868516 204.06626198 364.31957801 246.90418924 365 285 C365.02046387 286.01046387 365.04092773 287.02092773 365.06201172 288.06201172 C365.56974053 317.57322412 364.17797259 347.30039356 355.66748047 375.75488281 C355.16450985 377.44665963 354.67336154 379.14195792 354.18798828 380.83886719 C349.89667083 395.82714629 344.95276744 410.03913071 338 424 C337.57315918 424.86463867 337.14631836 425.72927734 336.70654297 426.62011719 C324.16724935 451.82707745 308.2119116 477.39524914 287.90234375 497.1015625 C285.98224311 499.01772043 284.20610163 501.00635289 282.4375 503.0625 C277.10573678 509.22471844 271.54795337 514.46197148 265.05078125 519.38671875 C262.85595749 521.04771185 262.85595749 521.04771185 260.5625 523.4375 C234.49117543 549.50882457 197.29326576 567.1633739 163 579 C161.86175781 579.4021875 160.72351563 579.804375 159.55078125 580.21875 C155.16577534 581.56178397 151.50625032 581.61619331 147.25 579.875 C144.35553223 577.46294353 143.23351161 575.56347797 142 572 C142.09471396 566.6013044 143.34891413 563.89602819 147 560 C149.55517578 558.64135742 149.55517578 558.64135742 152.4453125 557.60546875 C153.51289795 557.21190186 154.5804834 556.81833496 155.68041992 556.4128418 C156.81713135 556.008479 157.95384277 555.60411621 159.125 555.1875 C161.49986581 554.30522064 163.87356366 553.41979119 166.24609375 552.53125 C167.40608887 552.09941406 168.56608398 551.66757812 169.76123047 551.22265625 C190.59322081 543.35844642 210.31477699 532.53172763 228 519 C229.44741117 517.91208756 230.89535951 516.82488954 232.34375 515.73828125 C238.88785611 510.7990159 245.29420687 505.85701173 251.34033203 500.30932617 C253 499 253 499 255 499 C255.26167969 498.40058594 255.52335937 497.80117188 255.79296875 497.18359375 C257.07220188 494.86938236 258.26250442 493.70340555 260.3125 492.0625 C271.29745643 483.20047897 280.22719437 471.80734319 288.75097656 460.63427734 C289.85278749 459.19261934 290.96833114 457.76147909 292.0859375 456.33203125 C298.05082158 448.48029608 302.86389702 439.96979877 307.66699219 431.37841797 C308.88038117 429.21342978 310.11445172 427.06163029 311.3515625 424.91015625 C325.92616895 399.05537847 335.76269332 368.49411117 339 339 C339.10006348 338.15824219 339.20012695 337.31648438 339.30322266 336.44921875 C347.8026294 263.31416608 328.12562651 188.04591247 282.36328125 129.984375 C281.58339844 128.99953125 280.80351563 128.0146875 280 127 C279.33355469 126.13890625 278.66710937 125.2778125 277.98046875 124.390625 C233.44108632 67.42375705 161.55163568 28.23596509 90 19 C50.7144409 14.67132442 14.6124341 19.02431292 -23 31 C-23.90395508 31.28149902 -24.80791016 31.56299805 -25.73925781 31.85302734 C-42.58401963 37.18197445 -57.69310151 45.33767019 -73 54 C-73.80646973 54.45052734 -74.61293945 54.90105469 -75.44384766 55.36523438 C-85.61321903 61.06856664 -94.81459739 67.84751666 -104 75 C-104.91523438 75.69996094 -105.83046875 76.39992188 -106.7734375 77.12109375 C-113.89391512 82.66308362 -120.48210772 88.77226946 -127 95 C-127.61601074 95.5873291 -128.23202148 96.1746582 -128.86669922 96.77978516 C-139.99717325 107.46083039 -149.58803601 118.73343793 -158.27929688 131.49560547 C-159.37537056 133.0908841 -160.48742264 134.67538444 -161.62011719 136.24487305 C-166.08026599 142.44089514 -169.89096719 148.83977046 -173.5 155.5625 C-174.06388428 156.60736572 -174.62776855 157.65223145 -175.20874023 158.72875977 C-179.42916239 166.66646307 -183.05391152 174.69764514 -186.23681641 183.09790039 C-187.07050753 185.17572751 -188.01405044 187.1841745 -188.96484375 189.2109375 C-191.42606667 194.70153754 -192.96876335 200.37998902 -194.5 206.1875 C-194.80188232 207.32445312 -195.10376465 208.46140625 -195.41479492 209.6328125 C-198.19266688 220.33563621 -200.33981767 231.07136822 -202 242 C-202.11714355 242.73492676 -202.23428711 243.46985352 -202.35498047 244.22705078 C-209.33466389 289.26830647 -200.66640176 338.17158725 -181 379 C-180.66742188 379.70608398 -180.33484375 380.41216797 -179.9921875 381.13964844 C-170.99804373 400.23392316 -159.51587933 417.98053502 -146.1796875 434.328125 C-145 436 -145 436 -145 438 C-144.01 438.33 -143.02 438.66 -142 439 C-140.71211757 440.47144268 -139.49429673 442.0045715 -138.3125 443.5625 C-128.88435557 455.35921578 -117.8646255 465.69797219 -106 475 C-104.88997576 475.97252124 -103.78525517 476.95115068 -102.6875 477.9375 C-97.13451852 482.72546265 -91.01149455 486.8163456 -85 491 C-84.3905957 491.42893555 -83.78119141 491.85787109 -83.15332031 492.29980469 C-47.47491098 517.33361667 -2.92918648 532.48050485 40.33081055 535.92504883 C41.50168213 536.02454834 42.67255371 536.12404785 43.87890625 536.2265625 C45.43460327 536.34378662 45.43460327 536.34378662 47.02172852 536.46337891 C51.24897862 537.22503935 54.70929685 538.75380386 57.8125 541.75 C59.48307261 544.91529548 59.87671301 547.42467732 60 551 C58.78129544 554.52070207 57.78275227 556.41639319 54.7890625 558.6484375 C34.70102503 568.38297666 -6.93132415 553.01728968 -26.53466797 546.27294922 C-45.88204934 539.16591481 -65.56083094 531.05834329 -83 520 C-83.91749023 519.42169434 -84.83498047 518.84338867 -85.78027344 518.24755859 C-98.59599054 510.09755703 -110.70276463 501.43935677 -122.20605469 491.52490234 C-123.91659354 490.07089776 -125.65353771 488.66237761 -127.4140625 487.26953125 C-128.41179687 486.47933594 -129.40953125 485.68914062 -130.4375 484.875 C-131.28183594 484.21242188 -132.12617188 483.54984375 -132.99609375 482.8671875 C-135.01024523 480.99045376 -135.8690819 479.46890572 -137 477 C-137.61875 476.690625 -138.2375 476.38125 -138.875 476.0625 C-141.75383621 474.6230819 -142.98565327 472.51793341 -145 470 C-146.17299908 468.9830293 -147.36248216 467.98494336 -148.5625 467 C-154.42111297 461.97833174 -159.16955774 455.98234332 -164 450 C-164.42571289 449.47631836 -164.85142578 448.95263672 -165.29003906 448.41308594 C-172.57348748 439.39846604 -178.9164372 429.8545603 -185 420 C-185.4552002 419.26539551 -185.91040039 418.53079102 -186.37939453 417.77392578 C-193.86711399 405.57811985 -200.0073999 392.92543105 -205.74951172 379.82617188 C-206.87627493 377.27962542 -208.04074364 374.75564575 -209.22265625 372.234375 C-218.00274925 353.08987369 -222.53779621 331.85912926 -225 311 C-225.15227051 309.75404053 -225.15227051 309.75404053 -225.30761719 308.48291016 C-230.73270421 262.57503653 -225.50076741 214.54685768 -207 172 C-206.5666333 170.98993896 -206.5666333 170.98993896 -206.12451172 169.95947266 C-192.12212138 137.36958129 -172.8543987 108.77265238 -148.625 82.875 C-147.98336914 82.18857422 -147.34173828 81.50214844 -146.68066406 80.79492188 C-142.34944222 76.23785935 -137.77416238 72.08535893 -133 68 C-131.90435465 67.02817432 -130.81050175 66.05432273 -129.71875 65.078125 C-121.81389852 58.09631695 -113.5383703 52.01918109 -104.76123047 46.18261719 C-102.41184634 44.6050712 -100.11288639 42.96042672 -97.8125 41.3125 C-86.83549445 33.6431352 -75.24615978 27.25168586 -63.32861328 21.1875 C-61.87261604 20.44499941 -60.41987466 19.69603835 -58.97216797 18.9375 C-49.22970206 13.84625984 -39.0960982 10.15634371 -28.6875 6.6875 C-28.04960541 6.47440186 -27.41171082 6.26130371 -26.75448608 6.04174805 C-3.41518863 -1.70759432 -3.41518863 -1.70759432 0 0 Z " fill="#010101" transform="translate(265,36)"/>
<path d="M0 0 C0.81509033 0.00281982 1.63018066 0.00563965 2.4699707 0.00854492 C14.45854197 0.07077137 26.00628759 0.38886449 37.6875 3.3125 C39.3257373 3.7156543 39.3257373 3.7156543 40.99707031 4.12695312 C55.65360359 7.80377186 70.00309365 11.84554453 83.6875 18.3125 C84.85410156 18.85390625 86.02070313 19.3953125 87.22265625 19.953125 C139.42590106 45.14251483 176.04169599 86.9289369 195.68774414 141.27148438 C202.59700359 161.34169713 205.663619 182.17236882 206.6875 203.3125 C206.72214355 204.0255127 206.75678711 204.73852539 206.79248047 205.47314453 C208.61908116 250.48013184 192.92056443 296.29382487 165.12133789 331.46777344 C163.61533799 333.40534117 162.17510507 335.38356431 160.73046875 337.3671875 C157.86975346 341.19537501 154.68928152 344.50542001 151.25 347.8125 C147.76203199 351.21709612 144.37035087 354.57055697 141.3125 358.375 C125.20730104 377.21728942 100.19983274 389.61683479 77.57275391 398.54394531 C75.96952929 399.19752613 74.39317378 399.91640118 72.82421875 400.6484375 C48.81426439 411.81751257 19.46847543 414.2511735 -6.6875 413 C-7.45344482 412.96543701 -8.21938965 412.93087402 -9.00854492 412.89526367 C-14.92301942 412.53663186 -20.25604235 411.71264138 -25.25 408.3125 C-27.81525024 404.58122693 -28.03001466 402.14102503 -27.8046875 397.6875 C-27.04548539 394.02404854 -25.27664534 392.46824207 -22.3125 390.3125 C-18.73899181 388.00346394 -16.17363422 388.25425077 -12 388.6875 C32.82442873 392.5151004 79.84263659 379.75265662 114.89453125 350.94140625 C118.03612069 348.27201655 121.09731571 345.52165997 124.13037109 342.72998047 C126.24638072 340.80374154 128.4413608 338.97383933 130.625 337.125 C135.25787638 332.97615548 138.92570184 328.24369609 142.6875 323.3125 C143.45835937 322.36890625 144.22921875 321.4253125 145.0234375 320.453125 C175.38201076 282.72038726 187.08810819 235.55857658 182.46875 187.90625 C180.41891417 169.45772757 176.15692369 152.3029661 168.6875 135.3125 C168.28837402 134.40419434 167.88924805 133.49588867 167.47802734 132.56005859 C162.70626524 121.85674407 157.67137534 111.75722905 150.6875 102.3125 C149.99140625 101.33410156 149.2953125 100.35570312 148.578125 99.34765625 C143.11634208 91.82317871 137.08470184 85.03398396 130.6875 78.3125 C130.10613281 77.67828125 129.52476562 77.0440625 128.92578125 76.390625 C99.31078093 45.05989419 52.40497216 24.92603215 9.6105957 23.1875 C-20.86779721 22.46295608 -49.81251936 26.86999173 -77.46777344 40.41064453 C-79.44965279 41.37955167 -81.44650066 42.31266442 -83.4453125 43.24609375 C-91.74442766 47.18609722 -99.02859472 51.67299152 -106.3125 57.3125 C-108.16440484 58.62818946 -110.01859677 59.94066532 -111.875 61.25 C-116.51515231 64.62105082 -120.77000169 68.27325077 -124.9765625 72.16796875 C-127.06003625 74.08072308 -129.19739367 75.88430424 -131.375 77.6875 C-136.33637568 82.02248957 -140.26580526 87.13836792 -144.3125 92.3125 C-145.14136719 93.33730469 -145.97023437 94.36210937 -146.82421875 95.41796875 C-152.84078619 102.92715206 -157.82369576 110.79948276 -162.3125 119.3125 C-162.65023437 119.94559082 -162.98796875 120.57868164 -163.3359375 121.23095703 C-175.50894643 144.19835875 -182.53526943 168.25426676 -182.4375 194.375 C-182.44136719 195.41205078 -182.44523437 196.44910156 -182.44921875 197.51757812 C-182.44198573 203.22081428 -182.11344299 208.66893248 -181.3125 214.3125 C-180.54622598 224.84876782 -180.54622598 224.84876782 -184.3125 229.3125 C-187.46520727 231.41430485 -189.4148446 231.86417923 -193.1796875 231.74609375 C-197.27141818 230.91425839 -199.8578549 228.60581551 -202.3125 225.3125 C-203.5729809 222.35387123 -203.97562505 219.49794992 -204.3125 216.3125 C-204.47492188 215.05373047 -204.47492188 215.05373047 -204.640625 213.76953125 C-209.27908684 170.49756487 -196.8562427 125.4515927 -171.3125 90.3125 C-170.62849121 89.34884521 -170.62849121 89.34884521 -169.93066406 88.36572266 C-139.8436074 46.02288828 -94.95423803 16.87704489 -44.6875 4.5625 C-43.88997314 4.36382324 -43.09244629 4.16514648 -42.27075195 3.96044922 C-28.27180917 0.68425024 -14.31202439 -0.07191972 0 0 Z M-41.3125 6.3125 C-42.22370605 6.51117676 -43.13491211 6.70985352 -44.07373047 6.91455078 C-65.10771603 11.60634205 -83.48172334 20.02199719 -102.3125 30.3125 C-102.3125 30.9725 -102.3125 31.6325 -102.3125 32.3125 C-102.96734375 32.36148438 -103.6221875 32.41046875 -104.296875 32.4609375 C-108.69876485 33.70395821 -111.89931533 36.25846651 -115.5625 38.9375 C-116.69377319 39.75021362 -116.69377319 39.75021362 -117.84790039 40.5793457 C-122.56289048 43.98334598 -127.21395684 47.46024708 -131.74609375 51.10546875 C-133.3125 52.3125 -133.3125 52.3125 -135.3125 53.3125 C-135.3125 53.9725 -135.3125 54.6325 -135.3125 55.3125 C-135.89950684 55.57571045 -136.48651367 55.8389209 -137.09130859 56.11010742 C-140.98686882 58.21888233 -143.83804766 61.50166675 -146.9375 64.625 C-147.6495459 65.33978516 -148.3615918 66.05457031 -149.09521484 66.79101562 C-155.10703993 72.92136071 -160.29009525 79.35618078 -165.3125 86.3125 C-166.39405464 87.70971199 -167.47714587 89.10573739 -168.5625 90.5 C-171.83513326 94.89415365 -174.59500154 99.56043462 -177.3125 104.3125 C-177.78429687 105.13234375 -178.25609375 105.9521875 -178.7421875 106.796875 C-186.72961954 121.04472675 -193.1125452 135.51337081 -197.3125 151.3125 C-197.55661621 152.20839844 -197.80073242 153.10429687 -198.05224609 154.02734375 C-201.61269933 167.56504597 -202.76944869 180.69239994 -202.75 194.625 C-202.75022156 195.36830566 -202.75044312 196.11161133 -202.75067139 196.87744141 C-203.14636032 212.32412074 -203.14636032 212.32412074 -198.3125 226.5 C-195.8759162 228.70815407 -194.77391438 229.25097808 -191.5 229.6875 C-188.18222388 229.54392525 -188.18222388 229.54392525 -185.4375 227.375 C-182.04336402 222.48345109 -182.84715196 218.01933363 -183.82421875 212.3359375 C-187.78437 185.21909297 -182.69143803 153.74146707 -170.3125 129.3125 C-169.9196582 128.53374512 -169.52681641 127.75499023 -169.12207031 126.95263672 C-162.59951569 114.16198647 -155.43682802 102.40157677 -146.3125 91.3125 C-145.77496094 90.65685059 -145.23742187 90.00120117 -144.68359375 89.32568359 C-135.47667937 78.17345486 -135.47667937 78.17345486 -130.3125 74.3125 C-130.3125 73.6525 -130.3125 72.9925 -130.3125 72.3125 C-129.73371094 72.05984375 -129.15492188 71.8071875 -128.55859375 71.546875 C-126.04308879 70.16444097 -124.41412413 68.58263787 -122.375 66.5625 C-97.01325999 43.46255259 -63.74044834 29.4297062 -30.3125 23.3125 C-29.19488281 23.08820313 -28.07726562 22.86390625 -26.92578125 22.6328125 C8.97516052 16.54508021 47.03162406 23.95049391 79.625 39.4375 C80.36556641 39.78425781 81.10613281 40.13101563 81.86914062 40.48828125 C84.98464815 41.96004136 87.80913452 43.39358968 90.6875 45.3125 C91.6775 45.3125 92.6675 45.3125 93.6875 45.3125 C93.6875 45.9725 93.6875 46.6325 93.6875 47.3125 C95.4006705 48.49329037 95.4006705 48.49329037 97.6875 49.6875 C110.04365269 56.8879737 121.05039965 66.0453733 131.29589844 75.97216797 C132.53690824 77.16745635 133.80207684 78.33754526 135.0703125 79.50390625 C154.14230663 97.51634515 166.51925101 122.08019588 175.6875 146.3125 C175.93935059 146.93753418 176.19120117 147.56256836 176.45068359 148.20654297 C178.42636617 153.20574978 179.6770586 158.16339838 180.6875 163.4375 C180.93741699 164.73675415 180.93741699 164.73675415 181.19238281 166.06225586 C181.70770447 168.80957059 182.20198214 171.55976971 182.6875 174.3125 C182.92049805 175.61743408 182.92049805 175.61743408 183.15820312 176.94873047 C191.33828953 224.26752032 181.3790927 273.00329042 153.9375 312.5625 C152.539674 314.49295022 151.12447946 316.4110149 149.6875 318.3125 C149.05714844 319.15296875 148.42679687 319.9934375 147.77734375 320.859375 C126.27734286 348.58422215 98.07628238 368.20959231 65.6875 381.3125 C64.85532959 381.65047607 64.02315918 381.98845215 63.16577148 382.33666992 C56.02845445 385.09245833 48.89331125 386.65543715 41.375 388 C39.66473633 388.31807617 39.66473633 388.31807617 37.91992188 388.64257812 C34.84444968 389.21171104 31.76787312 389.77055603 28.6875 390.3125 C27.31621948 390.59492554 27.31621948 390.59492554 25.91723633 390.88305664 C21.62499942 391.45377587 17.44667964 391.33805925 13.125 391.234375 C11.25782973 391.20712579 9.39064095 391.18112202 7.5234375 391.15625 C4.60007613 391.11298465 1.67768666 391.06225818 -1.24511719 390.99023438 C-4.08023015 390.92348096 -6.91428579 390.88882734 -9.75 390.859375 C-10.61890869 390.83043152 -11.48781738 390.80148804 -12.38305664 390.77166748 C-16.67290057 390.75283022 -19.44936979 390.96641891 -22.86035156 393.71191406 C-25.66840052 396.59103325 -25.66840052 396.59103325 -26.0625 400.3125 C-25.77056736 403.74433037 -25.221561 404.42209315 -22.875 407.25 C-9.23839196 416.71081401 24.95084252 410.52408685 40.49121094 407.72265625 C41.21598633 407.58730469 41.94076172 407.45195313 42.6875 407.3125 C44.47027344 406.98765625 44.47027344 406.98765625 46.2890625 406.65625 C82.26621742 399.15728967 116.60211608 379.93951455 142.6875 354.3125 C143.61820312 353.42691406 144.54890625 352.54132813 145.5078125 351.62890625 C147.91592936 349.59985728 147.91592936 349.59985728 147.6875 347.3125 C148.3475 347.3125 149.0075 347.3125 149.6875 347.3125 C156.75316745 340.86482095 162.18098814 332.08437323 167.6875 324.3125 C168.35217285 323.37712402 168.35217285 323.37712402 169.03027344 322.42285156 C175.56380993 313.15275529 180.98133947 303.62840387 185.6875 293.3125 C186.02523438 292.57515625 186.36296875 291.8378125 186.7109375 291.078125 C207.75369362 244.56255883 210.57899764 187.58255162 192.6875 139.3125 C190.77901794 134.4692699 188.78562488 129.66570283 186.75 124.875 C186.24791016 123.68962646 185.74582031 122.50425293 185.22851562 121.28295898 C182.18593064 114.27879813 178.81694821 107.73459411 174.6875 101.3125 C174.0538855 100.31391968 174.0538855 100.31391968 173.4074707 99.29516602 C165.27184044 86.61734702 156.04706322 75.23732062 145.6875 64.3125 C144.95249268 63.53447021 144.95249268 63.53447021 144.20263672 62.74072266 C142.74971919 61.21246513 141.28406868 59.69778755 139.8125 58.1875 C138.94882812 57.29804688 138.08515625 56.40859375 137.1953125 55.4921875 C134.72959115 53.3490839 132.77621327 52.29778846 129.6875 51.3125 C129.6875 50.6525 129.6875 49.9925 129.6875 49.3125 C127.26197086 47.07328339 124.4949944 45.23134661 121.8125 43.3125 C120.59651123 42.44008667 120.59651123 42.44008667 119.35595703 41.55004883 C111.15401752 35.77288591 102.57878836 30.93339159 93.6875 26.3125 C92.67091309 25.77351074 92.67091309 25.77351074 91.63378906 25.22363281 C73.4088183 15.57302604 54.92199952 9.38761599 34.6875 5.3125 C33.7195752 5.11454834 32.75165039 4.91659668 31.75439453 4.71264648 C21.60668446 2.88586356 11.46255227 2.95765386 1.1875 3 C-0.21612289 3.00323273 -0.21612289 3.00323273 -1.64810181 3.00653076 C-15.07232321 3.05624638 -28.17004466 3.32423589 -41.3125 6.3125 Z " fill="#000000" transform="translate(317.3125,114.6875)"/>
<path d="M0 0 C15.49647046 12.17293804 26.2479989 29.25236705 29.6484375 48.75 C31.22396733 72.1113044 27.96917065 92.91539751 12.08203125 111.16015625 C0.34487084 123.65090641 -11.63554989 131.53527887 -28.3515625 135.75 C-29.25684692 136.01043091 -29.25684692 136.01043091 -30.18041992 136.27612305 C-44.71173446 139.44775034 -61.75291038 137.58796382 -75.3515625 131.75 C-76.31860107 131.33983643 -76.31860107 131.33983643 -77.30517578 130.92138672 C-97.27421471 122.11547412 -109.60010165 106.37197385 -117.6875 86.49609375 C-124.26767995 68.87831044 -123.024909 48.66748076 -115.5859375 31.5546875 C-107.23178211 13.45016247 -93.12896126 -1.79595658 -74.24707031 -9.05957031 C-48.84802915 -17.96810389 -22.40523246 -15.70396958 0 0 Z M-81.3515625 -3.25 C-81.3515625 -2.59 -81.3515625 -1.93 -81.3515625 -1.25 C-82.2075 -1.02570313 -83.0634375 -0.80140625 -83.9453125 -0.5703125 C-87.87856063 0.95427221 -90.71560904 3.13607297 -93.8515625 5.875 C-94.42398682 6.3692749 -94.99641113 6.8635498 -95.58618164 7.37280273 C-99.82849633 11.11630714 -103.34019883 14.93927661 -106.3515625 19.75 C-106.86074219 20.51828125 -107.36992187 21.2865625 -107.89453125 22.078125 C-118.54366559 38.80121003 -121.52014045 58.45589343 -117.59375 77.734375 C-114.75762506 89.41253654 -109.97090809 99.47244972 -102.3515625 108.75 C-101.6090625 109.74 -100.8665625 110.73 -100.1015625 111.75 C-86.5371194 127.48305313 -65.94520442 134.06889418 -45.98046875 135.9765625 C-29.36806465 136.66743753 -11.60842243 129.78348219 0.6484375 118.75 C1.46699219 118.07195312 2.28554688 117.39390625 3.12890625 116.6953125 C16.77601158 105.09217604 26.30304822 88.32023551 27.86572266 70.23535156 C28.82314727 49.14048985 25.1896816 30.79257283 11.0703125 14.3515625 C4.65918492 7.46477062 -2.27514577 1.58395108 -10.3515625 -3.25 C-10.93808594 -3.61738281 -11.52460938 -3.98476563 -12.12890625 -4.36328125 C-33.63437846 -16.5512841 -59.84340651 -12.70139329 -81.3515625 -3.25 Z " fill="#000000" transform="translate(367.3515625,262.25)"/>
<path d="M0 0 C14.52 0 29.04 0 44 0 C44 0.99 44 1.98 44 3 C29.48 3 14.96 3 0 3 C0 2.01 0 1.02 0 0 Z " fill="#121112" transform="translate(301,29)"/>
<path d="M0 0 C0.66 0.99 1.32 1.98 2 3 C-2.87331737 4.05369024 -7.46336695 4.01318743 -12.4140625 3.83984375 C-15.16627893 4.01029824 -16.58519308 4.76278411 -19 6 C-22.75 5.625 -22.75 5.625 -26 5 C-22.12027898 2.63306144 -17.97096008 2.11288059 -13.5625 1.375 C-12.81162109 1.2409375 -12.06074219 1.106875 -11.28710938 0.96875 C-3.22190571 -0.42155776 -3.22190571 -0.42155776 0 0 Z " fill="#050506" transform="translate(296,30)"/>
<path d="M0 0 C1.59521484 0.14695312 1.59521484 0.14695312 3.22265625 0.296875 C4.81400391 0.42835937 4.81400391 0.42835937 6.4375 0.5625 C9.28515625 1.046875 9.28515625 1.046875 12.28515625 3.046875 C9.71182725 4.3335395 7.78292587 4.21512051 4.91015625 4.234375 C3.47542969 4.25564453 3.47542969 4.25564453 2.01171875 4.27734375 C-0.74494392 4.04433072 -2.3643177 3.45607664 -4.71484375 2.046875 C-2.71484375 0.046875 -2.71484375 0.046875 0 0 Z " fill="#070707" transform="translate(352.71484375,29.953125)"/>
<path d="M0 0 C0.80824219 0.10183594 1.61648438 0.20367187 2.44921875 0.30859375 C3.06410156 0.39238281 3.67898438 0.47617187 4.3125 0.5625 C2.3125 2.5625 2.3125 2.5625 0.4375 2.828125 C-0.26375 2.82296875 -0.965 2.8178125 -1.6875 2.8125 C-2.38875 2.81765625 -3.09 2.8228125 -3.8125 2.828125 C-5.6875 2.5625 -5.6875 2.5625 -7.6875 0.5625 C-4.59271121 -0.46909626 -3.16118607 -0.41232862 0 0 Z " fill="#070707" transform="translate(372.6875,33.4375)"/>
<path d="M0 0 C0 0.66 0 1.32 0 2 C2.31 2 4.62 2 7 2 C7 2.33 7 2.66 7 3 C5.41705218 3.05437607 3.83355744 3.09296271 2.25 3.125 C1.36828125 3.14820313 0.4865625 3.17140625 -0.421875 3.1953125 C-3.1135858 2.99139502 -4.69904974 2.36551721 -7 1 C-4.53721199 -0.231394 -2.7204945 -0.07159196 0 0 Z " fill="#0D0D0E" transform="translate(301,30)"/>
<path d="M0 0 C3.3 0 6.6 0 10 0 C10 0.99 10 1.98 10 3 C6.6875 3.1875 6.6875 3.1875 3 3 C2.01 2.01 1.02 1.02 0 0 Z " fill="#010001" transform="translate(335,29)"/>
<path d="M0 0 C2.97 0 5.94 0 9 0 C8.67 0.99 8.34 1.98 8 3 C5.36 3 2.72 3 0 3 C0 2.01 0 1.02 0 0 Z " fill="#010101" transform="translate(301,29)"/>
</svg>
